<?xml version="1.0" encoding="utf-8"?>

<svg version="1.1" id="Layer_1" xmlns="http://www.w3.org/2000/svg" xmlns:xlink="http://www.w3.org/1999/xlink" x="0px" y="0px"
   viewBox="0 0 578.1 595.3" style="enable-background:new 0 0 578.1 595.3;" xml:space="preserve">
<style type="text/css">
  .st0{fill:#FFFFFF;stroke:#FFFFFF;stroke-miterlimit:10;}
  .st1{clip-path:url(#SVGID_00000085244620789085803090000011462037882758474911_);}
  .st2{fill:none;stroke:#FFFFFF;stroke-miterlimit:10;}
  .st3{clip-path:url(#SVGID_00000009551484465295353660000000210438995858406824_);}
  .st4{clip-path:url(#SVGID_00000172441256030157180130000003159473560369836975_);}
  .st5{clip-path:url(#SVGID_00000181084123841539678920000016983776447383437204_);}
  .st6{clip-path:url(#SVGID_00000111169699499433062270000011974215638858359181_);}
  .st7{clip-path:url(#SVGID_00000026155639001471136170000009934044985890065807_);}
  .st8{clip-path:url(#SVGID_00000040536303028018464670000004962769464794342070_);}
  .st9{clip-path:url(#SVGID_00000075868358796718808870000010597176036954533290_);}
  .st10{clip-path:url(#SVGID_00000124851445107155327460000006782961006880992653_);}
  .st11{clip-path:url(#SVGID_00000134964963228010080780000012346006411272358073_);}
  .st12{clip-path:url(#SVGID_00000035523504359332423170000004634853384804968579_);}
  .st13{clip-path:url(#SVGID_00000132782307973175896950000016386907455186443416_);}
  .st14{clip-path:url(#SVGID_00000043436137686185636650000006616905963481249931_);}
  .st15{clip-path:url(#SVGID_00000177454645315169356850000005537931098507513787_);}
  .st16{clip-path:url(#SVGID_00000156564871626996780960000005141765976061041308_);}
  .st17{clip-path:url(#SVGID_00000061463363091218576300000007140801758526166421_);}
  .st18{clip-path:url(#SVGID_00000085244970723018270560000018243722225061499792_);}
  .st19{clip-path:url(#SVGID_00000135648845804925957530000004643734873011142565_);}
  .st20{clip-path:url(#SVGID_00000107548697009577474930000013463333089632268930_);}
</style>
<g>
  <image style="overflow:visible;" width="5124" height="5276" xlink:href="plans.small"  transform="matrix(0.1128 0 0 0.1128 0 0)" class="plan">
  </image>
</g>
<rect x="179.5" y="224.5" class="st0" width="31.7" height="165"/>
<rect x="380.7" y="233" class="st0" width="31.7" height="140.9"/>
<rect x="323.8" y="208.9" class="st0" width="31.7" height="17"/>
<g>
  <defs>
    <rect id="SVGID_00000142158720257059896020000016234830852360669864_" x="190.1" y="209.7" width="7.3" height="12.9"/>
  </defs>
  <clipPath id="SVGID_00000153676250650265344040000010820769965883136441_">
    <use xlink:href="#SVGID_00000142158720257059896020000016234830852360669864_"  style="overflow:visible;"/>
  </clipPath>
  <g style="clip-path:url(#SVGID_00000153676250650265344040000010820769965883136441_);">
    <defs>
      <rect id="SVGID_00000054243891881980895680000009276885054209088912_" x="190.1" y="209.7" width="7.3" height="14"/>
    </defs>
    <clipPath id="SVGID_00000092433835486297292440000015573181870181979307_">
      <use xlink:href="#SVGID_00000054243891881980895680000009276885054209088912_"  style="overflow:visible;"/>
    </clipPath>
    <g style="clip-path:url(#SVGID_00000092433835486297292440000015573181870181979307_);">
      
        <image style="overflow:visible;" width="487" height="650" xlink:href="/default/argenville.30131.jpg"  transform="matrix(2.194818e-02 0 0 2.194818e-02 188.5739 209.4542)">
      </image>
    </g>
  </g>
</g>
<g>
  <defs>
    <rect id="SVGID_00000049940935539170249790000014756522143359439492_" x="325.1" y="209.2" width="12.7" height="23.3"/>
  </defs>
  <clipPath id="SVGID_00000125560806988999439210000012802743373179573646_">
    <use xlink:href="#SVGID_00000049940935539170249790000014756522143359439492_"  style="overflow:visible;"/>
  </clipPath>
  <g style="clip-path:url(#SVGID_00000125560806988999439210000012802743373179573646_);">
    
      <image style="overflow:visible;" width="1000" height="1500" xlink:href="/default/argenville.30146.jpg"  transform="matrix(1.633278e-02 0 0 1.633278e-02 323.1255 208.8944)">
    </image>
  </g>
</g>
<g>
  <defs>
    <rect id="SVGID_00000109722618767041437740000004371265277528807358_" x="338.9" y="209.2" width="12.7" height="23.3"/>
  </defs>
  <clipPath id="SVGID_00000143592853850548496820000016099368457878543242_">
    <use xlink:href="#SVGID_00000109722618767041437740000004371265277528807358_"  style="overflow:visible;"/>
  </clipPath>
  
    <g transform="matrix(1 0 0 1 -3.051758e-05 0)" style="clip-path:url(#SVGID_00000143592853850548496820000016099368457878543242_);">
    
      <image style="overflow:visible;" width="1126" height="1500" xlink:href="/default/argenville.30413.jpg"  transform="matrix(1.788522e-02 0 0 1.788522e-02 335.5306 206.9241)">
    </image>
  </g>
</g>
<path class="st2" d="M319,254.7"/>
<rect x="208.2" y="189.3" class="st0" width="31.7" height="43.2"/>
<image style="overflow:visible;" width="931" height="1500" xlink:href="/default/argenville.30009.jpg"  transform="matrix(3.450457e-02 0 0 3.450457e-02 205.7231 179.255)">
</image>
<g>
  <defs>
    <ellipse id="SVGID_00000032615404358632238250000005042229729040277160_" cx="187.4" cy="108.5" rx="6.8" ry="4.9"/>
  </defs>
  <clipPath id="SVGID_00000027565412614164525070000002638766499253590402_">
    <use xlink:href="#SVGID_00000032615404358632238250000005042229729040277160_"  style="overflow:visible;"/>
  </clipPath>
  <g style="clip-path:url(#SVGID_00000027565412614164525070000002638766499253590402_);">
    <defs>
      <ellipse id="SVGID_00000053532923205562825640000013853686872165038774_" cx="187.4" cy="108.5" rx="6.8" ry="5.4"/>
    </defs>
    <clipPath id="SVGID_00000176753079879283463670000017323894445861446528_">
      <use xlink:href="#SVGID_00000053532923205562825640000013853686872165038774_"  style="overflow:visible;"/>
    </clipPath>
    <g transform="matrix(1 0 0 1 0 0)" style="clip-path:url(#SVGID_00000176753079879283463670000017323894445861446528_);">
      
        <image style="overflow:visible;" width="1500" height="1125" xlink:href="/default/argenville.30137.jpg"  transform="matrix(1.443462e-02 0 0 1.365923e-02 176.5891 100.5919)">
      </image>
    </g>
  </g>
</g>
<image style="overflow:visible;" width="959" height="1197" xlink:href="/default/argenville.30282.jpg"  transform="matrix(1.066904e-02 0 0 1.066904e-02 181.7545 117.7855)">
</image>
<g>
  <defs>
    <rect id="SVGID_00000152952279612979468790000015332635742878960829_" x="248.4" y="105.8" width="30.8" height="28.1"/>
  </defs>
  <clipPath id="SVGID_00000038391279371044641830000012589757618289537195_">
    <use xlink:href="#SVGID_00000152952279612979468790000015332635742878960829_"  style="overflow:visible;"/>
  </clipPath>
  <g style="clip-path:url(#SVGID_00000038391279371044641830000012589757618289537195_);">
    <defs>
      <rect id="SVGID_00000000927153134086794650000014554941029904032152_" x="248.4" y="103.1" width="30.8" height="40.5"/>
    </defs>
    <clipPath id="SVGID_00000087409576019879565430000002451721961650172303_">
      <use xlink:href="#SVGID_00000000927153134086794650000014554941029904032152_"  style="overflow:visible;"/>
    </clipPath>
    
      <g transform="matrix(1 0 0 1 -1.525879e-05 0)" style="clip-path:url(#SVGID_00000087409576019879565430000002451721961650172303_);">
      
        <image style="overflow:visible;" width="1156" height="1500" xlink:href="/default/argenville.30082.jpg"  transform="matrix(2.821364e-02 0 0 2.821364e-02 247.4269 102.0186)">
      </image>
    </g>
  </g>
</g>
<g>
  <defs>
    <rect id="SVGID_00000083802715159105798160000011664574109254676671_" x="284.7" y="99.6" width="2" height="32.9"/>
  </defs>
  <clipPath id="SVGID_00000180358275889318943640000017346285817376493217_">
    <use xlink:href="#SVGID_00000083802715159105798160000011664574109254676671_"  style="overflow:visible;"/>
  </clipPath>
  
    <g transform="matrix(1.879958e-03 0 0 2.327139e-02 284.6742 98.1963)" style="clip-path:url(#SVGID_00000180358275889318943640000017346285817376493217_);">
    
      <image style="overflow:visible;" width="1090" height="1500" xlink:href="/default/argenville.30268.jpg"  transform="matrix(1.879958e-03 0 0 2.327139e-02 284.6742 98.1963)">
    </image>
  </g>
</g>
<g>
  <defs>
    <rect id="SVGID_00000119105014903648326380000009190718772068532377_" x="292.9" y="75.3" width="27.5" height="39.3"/>
  </defs>
  <clipPath id="SVGID_00000049194288040622129750000004043781476465450379_">
    <use xlink:href="#SVGID_00000119105014903648326380000009190718772068532377_"  style="overflow:visible;"/>
  </clipPath>
  <g style="clip-path:url(#SVGID_00000049194288040622129750000004043781476465450379_);">
    
      <image style="overflow:visible;" width="1069" height="1500" xlink:href="/default/argenville.30031.jpg"  transform="matrix(2.705173e-02 0 0 2.705173e-02 292.2239 74.5249)">
    </image>
  </g>
</g>
<g>
  <defs>
    <rect id="SVGID_00000084521563969454576410000016346423371381028486_" x="326.7" y="100.5" width="1.6" height="32.4"/>
  </defs>
  <clipPath id="SVGID_00000142863326583119592130000009733079508473254071_">
    <use xlink:href="#SVGID_00000084521563969454576410000016346423371381028486_"  style="overflow:visible;"/>
  </clipPath>
  <g style="clip-path:url(#SVGID_00000142863326583119592130000009733079508473254071_);">
    
      <image style="overflow:visible;" width="674" height="768" xlink:href="/default/argenville.30078.jpg"  transform="matrix(3.702415e-03 0 0 6.153581e-02 326.29 92.8993)">
    </image>
  </g>
</g>
<g>
  <defs>
    <rect id="SVGID_00000112629516720645387840000005779268932527221928_" x="331.6" y="72.2" width="33.1" height="22.3"/>
  </defs>
  <clipPath id="SVGID_00000020368704175034470060000007598621452329060006_">
    <use xlink:href="#SVGID_00000112629516720645387840000005779268932527221928_"  style="overflow:visible;"/>
  </clipPath>
  <g style="clip-path:url(#SVGID_00000020368704175034470060000007598621452329060006_);">
    <defs>
      <rect id="SVGID_00000009549847297121914430000015669064839531459979_" x="331.5" y="70.5" width="33.2" height="24"/>
    </defs>
    <clipPath id="SVGID_00000136398543147332644570000009558406387139616644_">
      <use xlink:href="#SVGID_00000009549847297121914430000015669064839531459979_"  style="overflow:visible;"/>
    </clipPath>
    <g style="clip-path:url(#SVGID_00000136398543147332644570000009558406387139616644_);">
      <defs>
        <rect id="SVGID_00000170270569968349551980000009621962067072399269_" x="331.5" y="69.4" width="33.2" height="26.2"/>
      </defs>
      <clipPath id="SVGID_00000027562953160881563760000006076846559820284068_">
        <use xlink:href="#SVGID_00000170270569968349551980000009621962067072399269_"  style="overflow:visible;"/>
      </clipPath>
      <g style="clip-path:url(#SVGID_00000027562953160881563760000006076846559820284068_);">
        
          <image style="overflow:visible;" width="2000" height="1587" xlink:href="/default/argenville.30087.jpg"  transform="matrix(1.695911e-02 0 0 1.695911e-02 331.0594 68.9422)">
        </image>
      </g>
    </g>
  </g>
</g>
<g>
  <defs>
    <rect id="SVGID_00000070804892674593579490000016723209249784084124_" x="332.1" y="105.8" width="29.6" height="26.6"/>
  </defs>
  <clipPath id="SVGID_00000116917261376585036710000008856735761695064970_">
    <use xlink:href="#SVGID_00000070804892674593579490000016723209249784084124_"  style="overflow:visible;"/>
  </clipPath>
  <g style="clip-path:url(#SVGID_00000116917261376585036710000008856735761695064970_);">
    <defs>
      <rect id="SVGID_00000009549568741046414380000017767495534956969104_" x="332.1" y="103.9" width="29.6" height="37.1"/>
    </defs>
    <clipPath id="SVGID_00000077300766217694894320000013963570727800030885_">
      <use xlink:href="#SVGID_00000009549568741046414380000017767495534956969104_"  style="overflow:visible;"/>
    </clipPath>
    <g style="clip-path:url(#SVGID_00000077300766217694894320000013963570727800030885_);">
      
        <image style="overflow:visible;" width="540" height="690" xlink:href="/default/argenville.30081.jpg"  transform="matrix(6.289060e-02 0 0 6.289060e-02 329.6489 99.4058)">
      </image>
    </g>
  </g>
</g>
<g>
  <defs>
    
      <rect id="SVGID_00000067931916881982242030000000908958562942535085_" x="395.2" y="232.5" transform="matrix(1.961539e-08 1 -1 1.961539e-08 643.8213 -159.7507)" width="13.3" height="19.1"/>
  </defs>
  <clipPath id="SVGID_00000086676151338575383540000016798954472663109253_">
    <use xlink:href="#SVGID_00000067931916881982242030000000908958562942535085_"  style="overflow:visible;"/>
  </clipPath>
  
    <g transform="matrix(1 0 0 1 0 1.525879e-05)" style="clip-path:url(#SVGID_00000086676151338575383540000016798954472663109253_);">
    
      <image style="overflow:visible;" width="1125" height="1500" xlink:href="/default/argenville.30412.jpg"  transform="matrix(3.256604e-10 1.660236e-02 -1.660236e-02 3.256604e-10 414.0703 232.4913)">
    </image>
  </g>
</g>
<g>
  <defs>
    
      <rect id="SVGID_00000138535849009353205450000000826729507587789995_" x="395.1" y="248.5" transform="matrix(-1.836970e-16 1 -1 -1.836970e-16 659.8624 -143.7112)" width="13.3" height="19.1"/>
  </defs>
  <clipPath id="SVGID_00000104671809870615999020000011558641698598163611_">
    <use xlink:href="#SVGID_00000138535849009353205450000000826729507587789995_"  style="overflow:visible;"/>
  </clipPath>
  
    <g transform="matrix(1 0 0 1 0 1.525879e-05)" style="clip-path:url(#SVGID_00000104671809870615999020000011558641698598163611_);">
    
      <image style="overflow:visible;" width="1000" height="1500" xlink:href="/default/argenville.30102.jpg"  transform="matrix(8.582849e-19 1.401686e-02 -1.401686e-02 8.582849e-19 412.3807 250.7083)">
    </image>
  </g>
</g>
<g>
  <defs>
    
      <rect id="SVGID_00000044140644015392234610000013951050581768630693_" x="394.3" y="272.1" transform="matrix(-1.836970e-16 1 -1 -1.836970e-16 683.4733 -125.0039)" width="19.8" height="14.2"/>
  </defs>
  <clipPath id="SVGID_00000046323617536627010270000003469879941964559247_">
    <use xlink:href="#SVGID_00000044140644015392234610000013951050581768630693_"  style="overflow:visible;"/>
  </clipPath>
  
    <g transform="matrix(1 -2.646978e-23 2.646978e-23 1 0 0)" style="clip-path:url(#SVGID_00000046323617536627010270000003469879941964559247_);">
    
      <image style="overflow:visible;" width="1500" height="1000" xlink:href="/default/argenville.30204.jpg"  transform="matrix(4.358789e-18 1.538702e-02 -1.538702e-02 4.358789e-18 411.5506 268.8839)">
    </image>
  </g>
</g>
<g>
  <defs>
    
      <rect id="SVGID_00000163061008445357545650000000027903544165343666_" x="395" y="292.2" transform="matrix(-1.836970e-16 1 -1 -1.836970e-16 703.5513 -100.0207)" width="13.6" height="19.1"/>
  </defs>
  <clipPath id="SVGID_00000178202256402988931430000012848616987743858562_">
    <use xlink:href="#SVGID_00000163061008445357545650000000027903544165343666_"  style="overflow:visible;"/>
  </clipPath>
  
    <g transform="matrix(1 -6.617445e-24 6.617445e-24 1 0 0)" style="clip-path:url(#SVGID_00000178202256402988931430000012848616987743858562_);">
    
      <image style="overflow:visible;" width="1000" height="1500" xlink:href="/default/argenville.30114.jpg"  transform="matrix(9.448795e-19 1.543105e-02 -1.543105e-02 9.448795e-19 413.9154 293.7444)">
    </image>
  </g>
</g>
<g>
  <defs>
    
      <rect id="SVGID_00000026142024259190633530000000034878601062011298_" x="396.1" y="317.2" transform="matrix(-5.057538e-07 1 -1 -5.057538e-07 728.7092 -74.8643)" width="11.4" height="19.4"/>
  </defs>
  <clipPath id="SVGID_00000129205677054794798650000006809729335025497488_">
    <use xlink:href="#SVGID_00000026142024259190633530000000034878601062011298_"  style="overflow:visible;"/>
  </clipPath>
  
    <g transform="matrix(-2.742170e-09 5.421946e-03 -5.421946e-03 -2.742170e-09 413.1759 318.0476)" style="clip-path:url(#SVGID_00000129205677054794798650000006809729335025497488_);">
    
      <image style="overflow:visible;" width="3277" height="4096" xlink:href="/default/argenville.30148.jpg"  transform="matrix(-2.742170e-09 5.421946e-03 -5.421946e-03 -2.742170e-09 413.1759 318.0476)">
    </image>
  </g>
</g>
<g>
  <defs>
    <rect id="SVGID_00000081624603165140916980000006252761568843959188_" x="530.5" y="283" width="33.8" height="36.7"/>
  </defs>
  <clipPath id="SVGID_00000152962817973351436670000003928914717059110057_">
    <use xlink:href="#SVGID_00000081624603165140916980000006252761568843959188_"  style="overflow:visible;"/>
  </clipPath>
  <g style="clip-path:url(#SVGID_00000152962817973351436670000003928914717059110057_);">
    <defs>
      
        <rect id="SVGID_00000003821175743867327460000016840606105412890508_" x="534.4" y="279.5" transform="matrix(-1.632917e-07 1 -1 -1.632917e-07 854.1854 -251.4122)" width="36.7" height="43.8"/>
    </defs>
    <clipPath id="SVGID_00000069372286603498549560000007524212765711952530_">
      <use xlink:href="#SVGID_00000003821175743867327460000016840606105412890508_"  style="overflow:visible;"/>
    </clipPath>
    <g style="clip-path:url(#SVGID_00000069372286603498549560000007524212765711952530_);">
      
        <image style="overflow:visible;" width="1280" height="1500" xlink:href="/default/argenville.30001.jpg"  transform="matrix(-4.861099e-09 2.976942e-02 -2.976942e-02 -4.861099e-09 575.1464 282.5272)">
      </image>
    </g>
  </g>
</g>
<g>
  <defs>
    <rect id="SVGID_00000026129972095766150800000018422023353400959670_" x="483.4" y="224.1" width="30.4" height="38.7"/>
  </defs>
  <clipPath id="SVGID_00000183939250024172546570000002334313492700837801_">
    <use xlink:href="#SVGID_00000026129972095766150800000018422023353400959670_"  style="overflow:visible;"/>
  </clipPath>
  <g style="clip-path:url(#SVGID_00000183939250024172546570000002334313492700837801_);">
    
      <image style="overflow:visible;" width="1666" height="1358" xlink:href="/default/guerin.40021.jpg"  transform="matrix(1.421837e-18 2.322036e-02 -2.322036e-02 1.421837e-18 513.7634 224.1289)">
    </image>
  </g>
</g>
<g>
  <defs>
    <rect id="SVGID_00000086658757876543830640000016302665624023112087_" x="477.1" y="283" width="43.2" height="37.6"/>
  </defs>
  <clipPath id="SVGID_00000007389907978131258220000006837901508804920203_">
    <use xlink:href="#SVGID_00000086658757876543830640000016302665624023112087_"  style="overflow:visible;"/>
  </clipPath>
  <g style="clip-path:url(#SVGID_00000007389907978131258220000006837901508804920203_);">
    <defs>
      <rect id="SVGID_00000173141664303683125980000003091345232997076921_" x="476.6" y="283" width="43.7" height="37.6"/>
    </defs>
    <clipPath id="SVGID_00000075148330020676990730000013416789018442851747_">
      <use xlink:href="#SVGID_00000173141664303683125980000003091345232997076921_"  style="overflow:visible;"/>
    </clipPath>
    
      <g transform="matrix(1 -6.617445e-24 6.617445e-24 1 0 0)" style="clip-path:url(#SVGID_00000075148330020676990730000013416789018442851747_);">
      
        <image style="overflow:visible;" width="479" height="600" xlink:href="/default/argenville.30020.jpg"  transform="matrix(4.811196e-18 7.857279e-02 -7.857279e-02 4.811196e-18 520.248 283.0361)">
      </image>
    </g>
  </g>
</g>
<g>
  <defs>
    <rect id="SVGID_00000080172808497431498610000007236154354529503669_" x="490.9" y="337" width="23.4" height="36.6"/>
  </defs>
  <clipPath id="SVGID_00000026853133538470249240000016604951085597780616_">
    <use xlink:href="#SVGID_00000080172808497431498610000007236154354529503669_"  style="overflow:visible;"/>
  </clipPath>
  <g style="clip-path:url(#SVGID_00000026853133538470249240000016604951085597780616_);">
    <defs>
      
        <rect id="SVGID_00000096737497263827731720000002628638032258462647_" x="485.3" y="341.2" transform="matrix(-1.836970e-16 1 -1 -1.836970e-16 858.8165 -148.2771)" width="36.6" height="28.1"/>
    </defs>
    <clipPath id="SVGID_00000142164480379893793970000018005675690941184928_">
      <use xlink:href="#SVGID_00000096737497263827731720000002628638032258462647_"  style="overflow:visible;"/>
    </clipPath>
    <g style="clip-path:url(#SVGID_00000142164480379893793970000018005675690941184928_);">
      <defs>
        <rect id="SVGID_00000147216846398248168910000003996287483425592478_" x="486.9" y="334.8" width="33.2" height="41"/>
      </defs>
      <clipPath id="SVGID_00000129196096723027423880000010037749706762027657_">
        <use xlink:href="#SVGID_00000147216846398248168910000003996287483425592478_"  style="overflow:visible;"/>
      </clipPath>
      <g style="clip-path:url(#SVGID_00000129196096723027423880000010037749706762027657_);">
        
          <image style="overflow:visible;" width="2300" height="1864" xlink:href="/default/argenville.30085.jpg"  transform="matrix(1.091906e-18 1.783218e-02 -1.783218e-02 1.091906e-18 520.134 334.7814)">
        </image>
      </g>
    </g>
  </g>
</g>
<g>
  <defs>
    <rect id="SVGID_00000140016010813867533670000008235459373070582669_" x="438.1" y="219.9" width="29.7" height="43.6"/>
  </defs>
  <clipPath id="SVGID_00000113326701757088283230000012626264479848987009_">
    <use xlink:href="#SVGID_00000140016010813867533670000008235459373070582669_"  style="overflow:visible;"/>
  </clipPath>
  <g style="clip-path:url(#SVGID_00000113326701757088283230000012626264479848987009_);">
    <defs>
      
        <rect id="SVGID_00000000926194058362308570000014525012824876691116_" x="429.2" y="224.9" transform="matrix(-1.836970e-16 1 -1 -1.836970e-16 692.7074 -209.3148)" width="43.6" height="33.5"/>
    </defs>
    <clipPath id="SVGID_00000067927755184410592520000007924436804415789708_">
      <use xlink:href="#SVGID_00000000926194058362308570000014525012824876691116_"  style="overflow:visible;"/>
    </clipPath>
    
      <g transform="matrix(1 -6.617445e-24 6.617445e-24 1 0 0)" style="clip-path:url(#SVGID_00000067927755184410592520000007924436804415789708_);">
      
        <image style="overflow:visible;" width="1476" height="1158" xlink:href="/default/argenville.30033.jpg"  transform="matrix(1.845423e-18 3.013804e-02 -3.013804e-02 1.845423e-18 468.3857 219.4616)">
      </image>
    </g>
  </g>
</g>
<g>
  <defs>
    <rect id="SVGID_00000115493002258210221870000015613321541642806206_" x="438.1" y="282.4" width="29.1" height="38.6"/>
  </defs>
  <clipPath id="SVGID_00000052813955216121436400000011393773175807388821_">
    <use xlink:href="#SVGID_00000115493002258210221870000015613321541642806206_"  style="overflow:visible;"/>
  </clipPath>
  
    <g transform="matrix(1 -6.617445e-24 6.617445e-24 1 0 0)" style="clip-path:url(#SVGID_00000052813955216121436400000011393773175807388821_);">
    
      <image style="overflow:visible;" width="2000" height="1483" xlink:href="/default/guerin.40022.jpg"  transform="matrix(1.203484e-18 1.965438e-02 -1.965438e-02 1.203484e-18 467.2337 282.1997)">
    </image>
  </g>
</g>
<g>
  <defs>
    <rect id="SVGID_00000014628868544372694490000000459383102903184013_" x="488.7" y="384.3" width="19.8" height="15.1"/>
  </defs>
  <clipPath id="SVGID_00000060735430496985481510000014184997137620484522_">
    <use xlink:href="#SVGID_00000014628868544372694490000000459383102903184013_"  style="overflow:visible;"/>
  </clipPath>
  <g style="clip-path:url(#SVGID_00000060735430496985481510000014184997137620484522_);">
    <defs>
      
        <rect id="SVGID_00000181774659480781118970000012903927807503505571_" x="490.3" y="382.7" transform="matrix(-1.836970e-16 1 -1 -1.836970e-16 891.1542 -106.0121)" width="16.6" height="19.8"/>
    </defs>
    <clipPath id="SVGID_00000103247964867710170610000006510964908508987801_">
      <use xlink:href="#SVGID_00000181774659480781118970000012903927807503505571_"  style="overflow:visible;"/>
    </clipPath>
    
      <g transform="matrix(1 -6.617445e-24 6.617445e-24 1 0 0)" style="clip-path:url(#SVGID_00000103247964867710170610000006510964908508987801_);">
      
        <image style="overflow:visible;" width="532" height="650" xlink:href="/default/argenville.30149.jpg"  transform="matrix(2.356899e-18 3.849108e-02 -3.849108e-02 2.356899e-18 510.4706 382.3782)">
      </image>
    </g>
  </g>
</g>
<g>
  <defs>
    <rect id="SVGID_00000166661429722181257410000004408896248296628143_" x="462.6" y="384.8" width="18.3" height="14.6"/>
  </defs>
  <clipPath id="SVGID_00000070811925113372778440000009151683338999597710_">
    <use xlink:href="#SVGID_00000166661429722181257410000004408896248296628143_"  style="overflow:visible;"/>
  </clipPath>
  <g style="clip-path:url(#SVGID_00000070811925113372778440000009151683338999597710_);">
    <defs>
      
        <rect id="SVGID_00000047028230130983181260000005191623600194866616_" x="464.8" y="382.6" transform="matrix(-1.836970e-16 1 -1 -1.836970e-16 864.1771 -79.9899)" width="14.6" height="19"/>
    </defs>
    <clipPath id="SVGID_00000026858298148139588280000013481448646674074551_">
      <use xlink:href="#SVGID_00000047028230130983181260000005191623600194866616_"  style="overflow:visible;"/>
    </clipPath>
    
      <g transform="matrix(1 0 0 1 3.051758e-05 0)" style="clip-path:url(#SVGID_00000026858298148139588280000013481448646674074551_);">
      
        <image style="overflow:visible;" width="385" height="446" xlink:href="/default/argenville.30141.jpg"  transform="matrix(3.001395e-18 4.901650e-02 -4.901650e-02 3.001395e-18 483.1353 383.1068)">
      </image>
    </g>
  </g>
</g>
<g>
  <defs>
    <rect id="SVGID_00000061474100255972352130000012325962991888041658_" x="437.6" y="385.9" width="17" height="14.6"/>
  </defs>
  <clipPath id="SVGID_00000026134936340061277790000002804143219072207252_">
    <use xlink:href="#SVGID_00000061474100255972352130000012325962991888041658_"  style="overflow:visible;"/>
  </clipPath>
  <g style="clip-path:url(#SVGID_00000026134936340061277790000002804143219072207252_);">
    <defs>
      <rect id="SVGID_00000037669400799497750530000010480029804313491887_" x="437.6" y="385.7" width="17" height="15"/>
    </defs>
    <clipPath id="SVGID_00000018215688789296211710000013703868704711909523_">
      <use xlink:href="#SVGID_00000037669400799497750530000010480029804313491887_"  style="overflow:visible;"/>
    </clipPath>
    <g style="clip-path:url(#SVGID_00000018215688789296211710000013703868704711909523_);">
      <defs>
        
          <rect id="SVGID_00000037660147170356808980000016695497604838126481_" x="438.5" y="384.8" transform="matrix(-1.836970e-16 1 -1 -1.836970e-16 840.0345 -52.7852)" width="15.8" height="17.7"/>
      </defs>
      <clipPath id="SVGID_00000044156948441166910250000003837603859862483076_">
        <use xlink:href="#SVGID_00000037660147170356808980000016695497604838126481_"  style="overflow:visible;"/>
      </clipPath>
      
        <g transform="matrix(1 0 6.617445e-24 1 0 0)" style="clip-path:url(#SVGID_00000044156948441166910250000003837603859862483076_);">
        
          <image style="overflow:visible;" width="1135" height="1500" xlink:href="/default/argenville.30135.jpg"  transform="matrix(1.110955e-18 1.688848e-02 -1.814327e-02 1.034121e-18 460.2144 384.0253)">
        </image>
      </g>
    </g>
  </g>
</g>
<g>
  <defs>
    
      <rect id="SVGID_00000083806354800281129850000016957855764641484726_" x="179.5" y="373.8" transform="matrix(-1 -1.224647e-16 1.224647e-16 -1 370.8486 763.2422)" width="11.9" height="15.6"/>
  </defs>
  <clipPath id="SVGID_00000074414430711935126680000012204949870112211113_">
    <use xlink:href="#SVGID_00000083806354800281129850000016957855764641484726_"  style="overflow:visible;"/>
  </clipPath>
  
    <g transform="matrix(1 0 0 1 0 -3.051758e-05)" style="clip-path:url(#SVGID_00000074414430711935126680000012204949870112211113_);">
    
      <image style="overflow:visible;" width="1200" height="1500" xlink:href="/default/argenville.30205.jpg"  transform="matrix(-1.170469e-02 0 0 -1.170469e-02 192.6149 390.2037)">
    </image>
  </g>
</g>
<g>
  <defs>
    
      <rect id="SVGID_00000158714893463039153020000010159051857683940518_" x="182.4" y="306.1" transform="matrix(6.123234e-17 -1 1 6.123234e-17 -127.3054 504.4523)" width="12.4" height="19.5"/>
  </defs>
  <clipPath id="SVGID_00000145018255929246363130000005817018499582036370_">
    <use xlink:href="#SVGID_00000158714893463039153020000010159051857683940518_"  style="overflow:visible;"/>
  </clipPath>
  
    <g transform="matrix(1 -6.617445e-24 6.617445e-24 1 0 0)" style="clip-path:url(#SVGID_00000145018255929246363130000005817018499582036370_);">
    
      <image style="overflow:visible;" width="1000" height="1500" xlink:href="/default/argenville.30156.jpg"  transform="matrix(8.397697e-19 -1.371448e-02 1.371448e-02 8.397697e-19 178.3847 322.9081)">
    </image>
  </g>
</g>
<g>
  <defs>
    
      <rect id="SVGID_00000090268304003629205030000000460148807911807112_" x="172" y="289.6" transform="matrix(6.123234e-17 -1 1 6.123234e-17 -110.9511 480.1964)" width="25.3" height="11.9"/>
  </defs>
  <clipPath id="SVGID_00000144317681184832729280000005407260675583496853_">
    <use xlink:href="#SVGID_00000090268304003629205030000000460148807911807112_"  style="overflow:visible;"/>
  </clipPath>
  <g style="clip-path:url(#SVGID_00000144317681184832729280000005407260675583496853_);">
    <defs>
      
        <rect id="SVGID_00000095304034931763756600000012361628739674985900_" x="170.1" y="288.2" transform="matrix(6.123234e-17 -1 1 6.123234e-17 -112.0772 478.8051)" width="26.6" height="14.4"/>
    </defs>
    <clipPath id="SVGID_00000078016522775692937540000010165915356728782236_">
      <use xlink:href="#SVGID_00000095304034931763756600000012361628739674985900_"  style="overflow:visible;"/>
    </clipPath>
    <g style="clip-path:url(#SVGID_00000078016522775692937540000010165915356728782236_);">
      
        <image style="overflow:visible;" width="1500" height="1000" xlink:href="/default/argenville.30147.jpg"  transform="matrix(1.097370e-18 -1.792141e-02 1.792141e-02 1.097370e-18 174.7146 309.0352)">
      </image>
    </g>
  </g>
</g>
<g>
  <defs>
    
      <rect id="SVGID_00000116950590356114746000000009867987029724060299_" x="180.6" y="265.5" transform="matrix(2.481222e-07 -1 1 2.481222e-07 -86.8541 459.7493)" width="11.6" height="15.6"/>
  </defs>
  <clipPath id="SVGID_00000165927735860309056110000007676376555507621558_">
    <use xlink:href="#SVGID_00000116950590356114746000000009867987029724060299_"  style="overflow:visible;"/>
  </clipPath>
  
    <g transform="matrix(1 -2.842171e-14 2.842171e-14 1 0 3.051758e-05)" style="clip-path:url(#SVGID_00000165927735860309056110000007676376555507621558_);">
    
      <image style="overflow:visible;" width="750" height="1000" xlink:href="/default/argenville.30095.jpg"  transform="matrix(4.327044e-09 -1.743917e-02 1.743917e-02 4.327044e-09 177.6058 280.0013)">
    </image>
  </g>
</g>
<g>
  <defs>
    
      <rect id="SVGID_00000050634542292972327840000007069299694396864189_" x="173.7" y="247" transform="matrix(6.123234e-17 -1 1 6.123234e-17 -68.3143 437.6391)" width="21.9" height="12"/>
  </defs>
  <clipPath id="SVGID_00000132076840777464011420000016322601964257884076_">
    <use xlink:href="#SVGID_00000050634542292972327840000007069299694396864189_"  style="overflow:visible;"/>
  </clipPath>
  
    <g transform="matrix(1 -1.323489e-23 -1.323489e-23 1 0 0)" style="clip-path:url(#SVGID_00000132076840777464011420000016322601964257884076_);">
    
      <image style="overflow:visible;" width="1500" height="1125" xlink:href="/default/argenville.30153.jpg"  transform="matrix(-2.805942e-18 -1.649924e-02 1.744855e-02 -2.653281e-18 175.2547 265.5194)">
    </image>
  </g>
</g>
<g>
  <defs>
    
      <rect id="SVGID_00000089574757710221353170000010344744204084642975_" x="179.4" y="224.2" transform="matrix(6.123234e-17 -1 1 6.123234e-17 -45.5203 419.4976)" width="15.1" height="16.7"/>
  </defs>
  <clipPath id="SVGID_00000137835804799044978840000001764283996527485874_">
    <use xlink:href="#SVGID_00000089574757710221353170000010344744204084642975_"  style="overflow:visible;"/>
  </clipPath>
  <g style="clip-path:url(#SVGID_00000137835804799044978840000001764283996527485874_);">
    
      <image style="overflow:visible;" width="1126" height="1500" xlink:href="/default/argenville.30145.jpg"  transform="matrix(1.021879e-17 -1.450541e-02 1.450541e-02 1.021879e-17 175.9548 240.9205)">
    </image>
  </g>
</g>
<g>
  <defs>
    <rect id="SVGID_00000089542195877322016770000001044282568386321818_" x="75.5" y="336.5" width="25.9" height="39.8"/>
  </defs>
  <clipPath id="SVGID_00000139972444485228734780000000582809912991143093_">
    <use xlink:href="#SVGID_00000089542195877322016770000001044282568386321818_"  style="overflow:visible;"/>
  </clipPath>
  <g style="clip-path:url(#SVGID_00000139972444485228734780000000582809912991143093_);">
    
      <image style="overflow:visible;" width="1920" height="1476" xlink:href="/default/argenville.30092.jpg"  transform="matrix(1.046273e-17 -2.070509e-02 2.070509e-02 1.046273e-17 74.0019 376.2164)">
    </image>
  </g>
</g>
<g>
  <defs>
    <rect id="SVGID_00000110439404965507347740000004759497743441024174_" x="33.2" y="289.2" width="32.2" height="26.1"/>
  </defs>
  <clipPath id="SVGID_00000062177122960758944340000011794178646389904774_">
    <use xlink:href="#SVGID_00000110439404965507347740000004759497743441024174_"  style="overflow:visible;"/>
  </clipPath>
  <g style="clip-path:url(#SVGID_00000062177122960758944340000011794178646389904774_);">
    <defs>
      
        <rect id="SVGID_00000115504594882598656710000016528741131312901297_" x="35.9" y="286.5" transform="matrix(6.123234e-17 -1 1 6.123234e-17 -253.3379 351.9337)" width="26.8" height="32.2"/>
    </defs>
    <clipPath id="SVGID_00000182509123805688148260000004662403530567452330_">
      <use xlink:href="#SVGID_00000115504594882598656710000016528741131312901297_"  style="overflow:visible;"/>
    </clipPath>
    <g transform="matrix(1 0 0 1 0 0)" style="clip-path:url(#SVGID_00000182509123805688148260000004662403530567452330_);">
      
        <image style="overflow:visible;" width="1271" height="1500" xlink:href="/default/argenville.30050.jpg"  transform="matrix(1.396016e-18 -2.279867e-02 2.279867e-02 1.396016e-18 32.2733 317.1794)">
      </image>
    </g>
  </g>
</g>
<g>
  <defs>
    <rect id="SVGID_00000044154693496872333150000014327833266972563882_" x="70.1" y="284.5" width="44.5" height="34.4"/>
  </defs>
  <clipPath id="SVGID_00000119109535664063025490000011515703793064455058_">
    <use xlink:href="#SVGID_00000044154693496872333150000014327833266972563882_"  style="overflow:visible;"/>
  </clipPath>
  <g style="clip-path:url(#SVGID_00000119109535664063025490000011515703793064455058_);">
    <defs>
      
        <rect id="SVGID_00000075884131529344754290000004333204136749823161_" x="72.3" y="279.4" transform="matrix(6.123234e-17 -1 1 6.123234e-17 -209.2802 394.1053)" width="40.3" height="44.5"/>
    </defs>
    <clipPath id="SVGID_00000063626845581963789000000004221100950070866582_">
      <use xlink:href="#SVGID_00000075884131529344754290000004333204136749823161_"  style="overflow:visible;"/>
    </clipPath>
    
      <g transform="matrix(1 1.323489e-23 -1.323489e-23 1 0 0)" style="clip-path:url(#SVGID_00000063626845581963789000000004221100950070866582_);">
      
        <image style="overflow:visible;" width="1373" height="1500" xlink:href="/default/argenville.30075.jpg"  transform="matrix(-5.674648e-18 -3.089134e-02 3.089134e-02 -5.674648e-18 69.2135 322.9227)">
      </image>
    </g>
  </g>
</g>
<g>
  <defs>
    <rect id="SVGID_00000037667987186504117280000012164258935270534308_" x="75.5" y="218.4" width="30.7" height="40.8"/>
  </defs>
  <clipPath id="SVGID_00000013191543254493594240000009415550389952082077_">
    <use xlink:href="#SVGID_00000037667987186504117280000012164258935270534308_"  style="overflow:visible;"/>
  </clipPath>
  <g style="clip-path:url(#SVGID_00000013191543254493594240000009415550389952082077_);">
    
      <image style="overflow:visible;" width="2000" height="1551" xlink:href="/default/argenville.30088.jpg"  transform="matrix(1.248666e-18 -2.039227e-02 2.039227e-02 1.248666e-18 75.5404 259.1555)">
    </image>
  </g>
</g>
<g>
  <defs>
    <rect id="SVGID_00000121242334376650296840000011677310468160289175_" x="122.4" y="279.1" width="30.5" height="44.1"/>
  </defs>
  <clipPath id="SVGID_00000171690651523156142530000005449137971821581962_">
    <use xlink:href="#SVGID_00000121242334376650296840000011677310468160289175_"  style="overflow:visible;"/>
  </clipPath>
  <g style="clip-path:url(#SVGID_00000171690651523156142530000005449137971821581962_);">
    <defs>
      
        <rect id="SVGID_00000146459131805173938620000013530419834747337619_" x="112" y="287.2" transform="matrix(6.123234e-17 -1 1 6.123234e-17 -164.7776 440.1004)" width="51.2" height="30.5"/>
    </defs>
    <clipPath id="SVGID_00000101790087264460063970000017764356433531222677_">
      <use xlink:href="#SVGID_00000146459131805173938620000013530419834747337619_"  style="overflow:visible;"/>
    </clipPath>
    <g style="clip-path:url(#SVGID_00000101790087264460063970000017764356433531222677_);">
      
        <image style="overflow:visible;" width="1224" height="768" xlink:href="/default/argenville.30519.jpg"  transform="matrix(-8.521319e-18 -4.638790e-02 4.638790e-02 -8.521319e-18 119.6439 331.0516)">
      </image>
    </g>
  </g>
</g>
<image style="overflow:visible;" width="934" height="768" xlink:href="/default/argenville.30030.jpg"  transform="matrix(-8.020394e-18 -4.366099e-02 4.366099e-02 -8.020394e-18 119.3574 258.6825)">
</image>
<g>
  <defs>
    
      <rect id="SVGID_00000018229010756093412090000010278114155535183031_" x="288.1" y="380.9" transform="matrix(-1 -1.224647e-16 1.224647e-16 -1 612.1508 790.3083)" width="36" height="28.4"/>
  </defs>
  <clipPath id="SVGID_00000163758597093035105470000012175862047524515258_">
    <use xlink:href="#SVGID_00000018229010756093412090000010278114155535183031_"  style="overflow:visible;"/>
  </clipPath>
  
    <g transform="matrix(1 0 0 1 0 -3.051758e-05)" style="clip-path:url(#SVGID_00000163758597093035105470000012175862047524515258_);">
    
      <image style="overflow:visible;" width="512" height="384" xlink:href="/default/argenville.30127.jpg"  transform="matrix(-8.514360e-02 0 0 -8.514360e-02 326.6422 411.5345)">
    </image>
  </g>
</g>
<rect x="256.5" y="372.3" class="st0" width="14.8" height="18.9"/>
<g>
  <defs>
    
      <rect id="SVGID_00000106126727127024616430000009022038683588765339_" x="256.5" y="365.9" transform="matrix(-1 -1.224647e-16 1.224647e-16 -1 527.1832 756.9629)" width="14.1" height="25.2"/>
  </defs>
  <clipPath id="SVGID_00000117677463730787720300000017940550312321174171_">
    <use xlink:href="#SVGID_00000106126727127024616430000009022038683588765339_"  style="overflow:visible;"/>
  </clipPath>
  <g style="clip-path:url(#SVGID_00000117677463730787720300000017940550312321174171_);">
    
      <image style="overflow:visible;" width="1200" height="1500" xlink:href="/default/argenville.30093.jpg"  transform="matrix(-1.683273e-02 0 0 -1.683273e-02 273.5139 391.106)">
    </image>
  </g>
</g>
<g>
  <defs>
    
      <rect id="SVGID_00000164476675393715293620000004492150683730538670_" x="214.8" y="378.5" transform="matrix(-1 -1.224647e-16 1.224647e-16 -1 445.9294 792.6671)" width="16.4" height="35.7"/>
  </defs>
  <clipPath id="SVGID_00000022521098453449421630000005587321795413129151_">
    <use xlink:href="#SVGID_00000164476675393715293620000004492150683730538670_"  style="overflow:visible;"/>
  </clipPath>
  
    <g transform="matrix(1 0 0 1 1.525879e-05 0)" style="clip-path:url(#SVGID_00000022521098453449421630000005587321795413129151_);">
    
      <image style="overflow:visible;" width="773" height="1500" xlink:href="/default/argenville.30411.jpg"  transform="matrix(-2.516623e-02 0 0 -2.516623e-02 232.326 415.5966)">
    </image>
  </g>
</g>
<g>
  <defs>
    <ellipse id="SVGID_00000051343520128229847440000016569113480769858434_" cx="188.3" cy="497.1" rx="6.3" ry="7.9"/>
  </defs>
  <clipPath id="SVGID_00000058587164975325694390000010047906857449175433_">
    <use xlink:href="#SVGID_00000051343520128229847440000016569113480769858434_"  style="overflow:visible;"/>
  </clipPath>
  <g style="clip-path:url(#SVGID_00000058587164975325694390000010047906857449175433_);">
    
      <image style="overflow:visible;" width="1126" height="1500" xlink:href="/default/argenville.30133.jpg"  transform="matrix(-1.329928e-02 0 0 -1.329928e-02 195.852 507.0198)">
    </image>
  </g>
</g>
<rect id="_x33_0151" x="289.1" y="196.9" class="st21" width="32.9" height="18.6"/>
<rect id="_x34_0018" x="371.6" y="198.4" class="st21" width="31.6" height="31.6"/>
<rect id="_x34_0019" x="242.3" y="210.1" class="st21" width="11.8" height="11.8"/>
<rect id="_x33_0332" x="258.1" y="210.1" class="st21" width="15.1" height="15.1"/>
<rect id="_x33_0331" x="289.1" y="179.3" class="st21" width="7.2" height="11.7"/>
<rect id="_x34_0020" x="180.7" y="73.5" class="st21" width="18.7" height="21.4"/>
<rect id="_x33_0077" x="248.2" y="73.5" class="st21" width="33.9" height="21.4"/>
<rect id="_x33_0203" x="179.8" y="211.9" transform="matrix(0.788 -0.6157 0.6157 0.788 -93.108 158.2408)" class="st21" width="6.8" height="4.8"/>
<rect id="_x33_0328" x="382.6" y="380.6" class="st21" width="11.4" height="23.2"/>
<rect id="_x34_0025" x="342.3" y="376.5" class="st21" width="9.4" height="14.6"/>
<rect id="_x34_0026" x="272.1" y="379.2" class="st21" width="6.4" height="11.9"/>
<rect id="_x34_0026_00000021834758956749392470000015763454761027595657_" x="249.1" y="379.2" class="st21" width="6.2" height="11.5"/>
<rect id="_x33_0307" x="338.9" y="450.6" class="st21" width="18.6" height="38.3"/>
<rect id="_x33_0299" x="255.3" y="451.5" class="st21" width="18.4" height="37.4"/>
</svg>