<?xml version="1.0" encoding="utf-8"?>

<svg version="1.1" id="Layer_1" xmlns="http://www.w3.org/2000/svg" xmlns:xlink="http://www.w3.org/1999/xlink" x="0px" y="0px"
       viewBox="0 0 511.5 594.7" style="enable-background:new 0 0 511.5 594.7;" xml:space="preserve">
    <style type="text/css">
      .st0{clip-path:url(#SVGID_00000113347514796815298780000010938018624913599880_);}
      .st1{clip-path:url(#SVGID_00000109002538623504149590000006509701049106862261_);}
      .st2{clip-path:url(#SVGID_00000018234007406207451590000017643896907490069930_);}
      .st3{clip-path:url(#SVGID_00000000906273689141147540000013425347187642396839_);}
      .st4{clip-path:url(#SVGID_00000023966362415941193480000018236127628993744016_);}
      .st5{clip-path:url(#SVGID_00000107562719739429307580000004008072448652629912_);}
    </style>
    <image style="overflow:visible;" width="4524" height="5260" xlink:href="plans.small"  transform="matrix(0.1131 0 0 0.1131 0 0)" class="plan">
    </image>
    <g>
      <defs>
        <rect id="SVGID_1_" x="223.4" y="31" width="64.7" height="92.5"/>
      </defs>
      <clipPath id="SVGID_00000056386152171101337940000006086367135619269052_">
        <use xlink:href="#SVGID_1_"  style="overflow:visible;"/>
      </clipPath>
      <g style="clip-path:url(#SVGID_00000056386152171101337940000006086367135619269052_);">
        <defs>
          <rect id="SVGID_00000011718871848026717830000001005678420877745599_" x="224.3" y="31.6" width="66.6" height="92"/>
        </defs>
        <clipPath id="SVGID_00000032637803970487325430000015762992813642136504_">
          <use xlink:href="#SVGID_00000011718871848026717830000001005678420877745599_"  style="overflow:visible;"/>
        </clipPath>
        <g style="clip-path:url(#SVGID_00000032637803970487325430000015762992813642136504_);">
          
            <image style="overflow:visible;" width="1550" height="2000" xlink:href="/default/argenville.30083.jpg"  transform="matrix(4.597843e-02 0 0 4.597843e-02 224.2586 31.6458)">
          </image>
        </g>
      </g>
    </g>
    <g>
      <defs>
        <rect id="SVGID_00000139266737451612412540000005802353146801662098_" x="190.3" y="111.4" width="17.8" height="23.8"/>
      </defs>
      <clipPath id="SVGID_00000145754159988812408520000009041820911138488971_">
        <use xlink:href="#SVGID_00000139266737451612412540000005802353146801662098_"  style="overflow:visible;"/>
      </clipPath>
      <g style="clip-path:url(#SVGID_00000145754159988812408520000009041820911138488971_);">
        
          <image style="overflow:visible;" width="1567" height="2000" xlink:href="/default/argenville.30044.jpg"  transform="matrix(1.508291e-02 0 0 1.508291e-02 187.2795 108.1706)">
        </image>
      </g>
    </g>
    <g>
      <defs>
        <rect id="SVGID_00000106860113989801135130000015472368609649120906_" x="188.2" y="77.2" width="26.5" height="25.1"/>
      </defs>
      <clipPath id="SVGID_00000070839636920799034860000007547350467778117261_">
        <use xlink:href="#SVGID_00000106860113989801135130000015472368609649120906_"  style="overflow:visible;"/>
      </clipPath>
      <g style="clip-path:url(#SVGID_00000070839636920799034860000007547350467778117261_);">
        <defs>
          <rect id="SVGID_00000026875280574418607210000006482582310462466435_" x="187.3" y="73.1" width="28.3" height="34.2"/>
        </defs>
        <clipPath id="SVGID_00000106146415192113301090000000843289020250938535_">
          <use xlink:href="#SVGID_00000026875280574418607210000006482582310462466435_"  style="overflow:visible;"/>
        </clipPath>
        
          <g transform="matrix(1 0 0 1 -1.525879e-05 0)" style="clip-path:url(#SVGID_00000106146415192113301090000000843289020250938535_);">
          
            <image style="overflow:visible;" width="1718" height="2000" xlink:href="/default/argenville.30062.jpg"  transform="matrix(2.206496e-02 0 0 2.206496e-02 182.8149 68.3215)">
          </image>
        </g>
      </g>
    </g>
    <g>
      <defs>
        <rect id="SVGID_00000154424000655357677340000002922098841118828935_" x="194" y="43.5" width="21.4" height="25.4"/>
      </defs>
      <clipPath id="SVGID_00000139980380509816420450000014607084366670991243_">
        <use xlink:href="#SVGID_00000154424000655357677340000002922098841118828935_"  style="overflow:visible;"/>
      </clipPath>
      <g style="clip-path:url(#SVGID_00000139980380509816420450000014607084366670991243_);">
        
          <image style="overflow:visible;" width="1904" height="2000" xlink:href="/default/guerin.40000.jpg"  transform="matrix(1.271943e-02 0 0 1.271943e-02 193.9652 43.5171)">
        </image>
      </g>
    </g>
    <g>
      <defs>
        <rect id="SVGID_00000023996784889919685870000001472283821042564017_" x="298.4" y="41.5" width="17.8" height="22.8"/>
      </defs>
      <clipPath id="SVGID_00000142862890146798766830000003585019765738002327_">
        <use xlink:href="#SVGID_00000023996784889919685870000001472283821042564017_"  style="overflow:visible;"/>
      </clipPath>
      <g style="clip-path:url(#SVGID_00000142862890146798766830000003585019765738002327_);">
        
          <image style="overflow:visible;" width="540" height="684" xlink:href="/default/argenville.30036.jpg"  transform="matrix(3.762357e-02 0 0 3.762357e-02 297.3692 39.6532)">
        </image>
      </g>
    </g>
    <g>
      <defs>
        <rect id="SVGID_00000093135426328266224380000001363804554481270158_" x="298.2" y="73" width="18.4" height="28.5"/>
      </defs>
      <clipPath id="SVGID_00000036230389285053368670000008538673970905270456_">
        <use xlink:href="#SVGID_00000093135426328266224380000001363804554481270158_"  style="overflow:visible;"/>
      </clipPath>
      <g style="clip-path:url(#SVGID_00000036230389285053368670000008538673970905270456_);">
        <defs>
          <rect id="SVGID_00000149356662377224811950000009029006251514960554_" x="298.2" y="73" width="19.9" height="28.8"/>
        </defs>
        <clipPath id="SVGID_00000094575713626339149510000004623223595722948539_">
          <use xlink:href="#SVGID_00000149356662377224811950000009029006251514960554_"  style="overflow:visible;"/>
        </clipPath>
        <g style="clip-path:url(#SVGID_00000094575713626339149510000004623223595722948539_);">
          
            <image style="overflow:visible;" width="1453" height="2000" xlink:href="/default/argenville.30043.jpg"  transform="matrix(1.495229e-02 0 0 1.495229e-02 297.4041 72.3948)">
          </image>
        </g>
      </g>
    </g>
    <g>
      <defs>
        <rect id="SVGID_00000152986078359236810260000016108098651320746895_" x="298.4" y="106.3" width="18.7" height="27"/>
      </defs>
      <clipPath id="SVGID_00000115492700418917095170000007517418198127572658_">
        <use xlink:href="#SVGID_00000152986078359236810260000016108098651320746895_"  style="overflow:visible;"/>
      </clipPath>
      <g style="clip-path:url(#SVGID_00000115492700418917095170000007517418198127572658_);">
        
          <image style="overflow:visible;" width="1530" height="2000" xlink:href="/default/argenville.30037.jpg"  transform="matrix(1.350761e-02 0 0 1.350761e-02 298.3666 106.3273)">
        </image>
      </g>
    </g>
    <g>
      <defs>
        <rect id="SVGID_00000044869749898183121680000002065784269603396262_" x="74" y="191" width="37.4" height="19.2"/>
      </defs>
      <clipPath id="SVGID_00000132808317778123954990000005657528623119451579_">
        <use xlink:href="#SVGID_00000044869749898183121680000002065784269603396262_"  style="overflow:visible;"/>
      </clipPath>
      
        <g transform="matrix(1 0 0 1 0 -1.525879e-05)" style="clip-path:url(#SVGID_00000132808317778123954990000005657528623119451579_);">
        
          <image style="overflow:visible;" width="1490" height="2000" xlink:href="/default/argenville.30042.jpg"  transform="matrix(-3.475030e-18 -1.891718e-02 1.891718e-02 -3.475030e-18 73.8094 214.7172)">
        </image>
      </g>
    </g>
    <g>
      <defs>
        <rect id="SVGID_00000154394282470297724060000012047117853226397833_" x="83.4" y="214.8" width="28.5" height="18.5"/>
      </defs>
      <clipPath id="SVGID_00000005968275766264529840000018073049108847961480_">
        <use xlink:href="#SVGID_00000154394282470297724060000012047117853226397833_"  style="overflow:visible;"/>
      </clipPath>
      
        <g transform="matrix(1 0 0 1 0 1.525879e-05)" style="clip-path:url(#SVGID_00000005968275766264529840000018073049108847961480_);">
        
          <image style="overflow:visible;" width="625" height="768" xlink:href="/default/argenville.30086.jpg"  transform="matrix(-6.932537e-18 -3.773898e-02 3.773898e-02 -6.932537e-18 82.8695 235.5139)">
        </image>
      </g>
    </g>
    <g>
      <defs>
        
          <rect id="SVGID_00000020358014236599767870000012089395669022710973_" x="42.4" y="201.6" transform="matrix(0.9995 -3.313441e-02 3.313441e-02 0.9995 -7.2942 1.84)" width="18.9" height="38.8"/>
      </defs>
      <clipPath id="SVGID_00000098178813862282236190000003190293363566473361_">
        <use xlink:href="#SVGID_00000020358014236599767870000012089395669022710973_"  style="overflow:visible;"/>
      </clipPath>
      
        <g transform="matrix(1 0 0 1 0 1.525879e-05)" style="clip-path:url(#SVGID_00000098178813862282236190000003190293363566473361_);">
        
          <image style="overflow:visible;" width="1074" height="768" xlink:href="/default/argenville.30048.jpg"  transform="matrix(-1.198022e-03 -3.613658e-02 3.613658e-02 -1.198022e-03 43.0597 240.7182)">
        </image>
      </g>
    </g>
    <g>
      <defs>
        <rect id="SVGID_00000018236112526038218050000007312267632414886798_" x="400.7" y="188" width="30.3" height="23.4"/>
      </defs>
      <clipPath id="SVGID_00000000919016052285186310000017178677505594939295_">
        <use xlink:href="#SVGID_00000018236112526038218050000007312267632414886798_"  style="overflow:visible;"/>
      </clipPath>
      
        <g transform="matrix(1 -1.323489e-23 1.323489e-23 1 0 0)" style="clip-path:url(#SVGID_00000000919016052285186310000017178677505594939295_);">
        
          <image style="overflow:visible;" width="1655" height="2000" xlink:href="/default/argenville.30058.jpg"  transform="matrix(-2.433998e-18 1.513565e-02 -1.513565e-02 -2.433998e-18 431.0007 188.0392)">
        </image>
      </g>
    </g>
    <g>
      <defs>
        <rect id="SVGID_00000015329324687698854980000007017825712651316391_" x="400.7" y="216.6" width="41.4" height="26.8"/>
      </defs>
      <clipPath id="SVGID_00000116943008317316043510000006945702911102378943_">
        <use xlink:href="#SVGID_00000015329324687698854980000007017825712651316391_"  style="overflow:visible;"/>
      </clipPath>
      <g style="clip-path:url(#SVGID_00000116943008317316043510000006945702911102378943_);">
        <defs>
          <rect id="SVGID_00000048465383947447559780000016056100378472597694_" x="400.7" y="216.6" width="42.7" height="26.8"/>
        </defs>
        <clipPath id="SVGID_00000091003461492116357190000011430392557317846677_">
          <use xlink:href="#SVGID_00000048465383947447559780000016056100378472597694_"  style="overflow:visible;"/>
        </clipPath>
        <g style="clip-path:url(#SVGID_00000091003461492116357190000011430392557317846677_);">
          <defs>
            
              <rect id="SVGID_00000054227312364762413210000009441963126237650079_" x="404.1" y="210.3" transform="matrix(-1.836970e-16 1 -1 -1.836970e-16 653.7177 -190.4047)" width="35.9" height="42.7"/>
          </defs>
          <clipPath id="SVGID_00000065796845726865548730000007967726679367013046_">
            <use xlink:href="#SVGID_00000054227312364762413210000009441963126237650079_"  style="overflow:visible;"/>
          </clipPath>
          
            <g transform="matrix(1 6.617445e-24 -6.617445e-24 1 0 1.525879e-05)" style="clip-path:url(#SVGID_00000065796845726865548730000007967726679367013046_);">
            
              <image style="overflow:visible;" width="1688" height="2000" xlink:href="/default/argenville.30057.jpg"  transform="matrix(1.350020e-18 2.204750e-02 -2.204750e-02 1.350020e-18 444.1321 213.0338)">
            </image>
          </g>
        </g>
      </g>
    </g>
    <g>
      <defs>
        <rect id="SVGID_00000104677258889515450390000005200912879266546589_" x="176.8" y="178.2" width="15.1" height="19.7"/>
      </defs>
      <clipPath id="SVGID_00000091014716664654991350000001529690562195023789_">
        <use xlink:href="#SVGID_00000104677258889515450390000005200912879266546589_"  style="overflow:visible;"/>
      </clipPath>
      <g transform="matrix(1 0 0 1 0 0)" style="clip-path:url(#SVGID_00000091014716664654991350000001529690562195023789_);">
        
          <image style="overflow:visible;" width="1000" height="1500" xlink:href="/default/argenville.30113.jpg"  transform="matrix(1.509425e-02 0 0 1.509425e-02 176.7567 175.2453)">
        </image>
      </g>
    </g>
    <g>
      <defs>
        <rect id="SVGID_00000085226815727364847640000002854883297611643276_" x="320.1" y="175.8" width="15.8" height="19.7"/>
      </defs>
      <clipPath id="SVGID_00000121983406881584697970000005884324754864937634_">
        <use xlink:href="#SVGID_00000085226815727364847640000002854883297611643276_"  style="overflow:visible;"/>
      </clipPath>
      <g transform="matrix(1 0 0 1 0 0)" style="clip-path:url(#SVGID_00000121983406881584697970000005884324754864937634_);">
        
          <image style="overflow:visible;" width="1306" height="1500" xlink:href="/default/argenville.30104.jpg"  transform="matrix(1.472532e-02 0 0 1.472532e-02 318.3757 173.8478)">
        </image>
      </g>
    </g>
    <g>
      <defs>
        <rect id="SVGID_00000140001390441878490090000006966847071126082694_" x="302.3" y="175.8" width="15.1" height="19.7"/>
      </defs>
      <clipPath id="SVGID_00000085252049371858130530000001436731501770263465_">
        <use xlink:href="#SVGID_00000140001390441878490090000006966847071126082694_"  style="overflow:visible;"/>
      </clipPath>
      <g style="clip-path:url(#SVGID_00000085252049371858130530000001436731501770263465_);">
        
          <image style="overflow:visible;" width="1125" height="1500" xlink:href="/default/argenville.30105.jpg"  transform="matrix(1.621255e-02 0 0 1.621255e-02 301.3768 173.2535)">
        </image>
      </g>
    </g>
    <g>
      <defs>
        <rect id="SVGID_00000070835457804090802330000004948998938562084023_" x="267.4" y="175.8" width="15.6" height="19.7"/>
      </defs>
      <clipPath id="SVGID_00000134941504166020137950000008339619948202012831_">
        <use xlink:href="#SVGID_00000070835457804090802330000004948998938562084023_"  style="overflow:visible;"/>
      </clipPath>
      <g style="clip-path:url(#SVGID_00000134941504166020137950000008339619948202012831_);">
        <defs>
          <rect id="SVGID_00000131345927693924506120000013259530923207245451_" x="267" y="174.9" width="16.5" height="21.3"/>
        </defs>
        <clipPath id="SVGID_00000049917039530028794670000016305436857152951436_">
          <use xlink:href="#SVGID_00000131345927693924506120000013259530923207245451_"  style="overflow:visible;"/>
        </clipPath>
        <g transform="matrix(1 0 0 1 0 0)" style="clip-path:url(#SVGID_00000049917039530028794670000016305436857152951436_);">
          
            <image style="overflow:visible;" width="1288" height="1500" xlink:href="/default/argenville.30103.jpg"  transform="matrix(1.533026e-02 0 0 1.533026e-02 265.174 173.1713)">
          </image>
        </g>
      </g>
    </g>
    <image style="overflow:visible;" width="1038" height="800" xlink:href="/default/argenville.30034.jpg"  transform="matrix(1.717821e-18 -2.805415e-02 2.805415e-02 1.717821e-18 203.0943 302.3831)">
    </image>
    <image style="overflow:visible;" width="741" height="600" xlink:href="/default/argenville.30047.jpg"  transform="matrix(1.222394e-08 3.740553e-02 -3.740553e-02 1.222394e-08 313.4896 246.3007)">
    </image>
    <g>
      <defs>
        
          <rect id="SVGID_00000091703681950160601810000007900853135763760814_" x="288.9" y="277.7" transform="matrix(1.961535e-08 1 -1 1.961535e-08 591.2378 -13.3003)" width="26.8" height="22.4"/>
      </defs>
      <clipPath id="SVGID_00000138541810783329619830000002806967535561132211_">
        <use xlink:href="#SVGID_00000091703681950160601810000007900853135763760814_"  style="overflow:visible;"/>
      </clipPath>
      
        <g transform="matrix(1 0 0 1 0 -3.051758e-05)" style="clip-path:url(#SVGID_00000138541810783329619830000002806967535561132211_);">
        
          <image style="overflow:visible;" width="918" height="768" xlink:href="/default/argenville.30262.jpg"  transform="matrix(5.974997e-10 3.046088e-02 -3.046088e-02 5.974997e-10 313.979 274.9587)">
        </image>
      </g>
    </g>
    <g>
      <defs>
        <rect id="SVGID_00000152955125235848206560000006952945920775956615_" x="370.7" y="401.8" width="23.9" height="54.8"/>
      </defs>
      <clipPath id="SVGID_00000037669121449373926420000007009318883967625375_">
        <use xlink:href="#SVGID_00000152955125235848206560000006952945920775956615_"  style="overflow:visible;"/>
      </clipPath>
      <g style="clip-path:url(#SVGID_00000037669121449373926420000007009318883967625375_);">
        
          <image style="overflow:visible;" width="676" height="1500" xlink:href="/default/argenville.30316.jpg"  transform="matrix(3.792097e-02 0 0 3.792097e-02 369.7788 401.79)">
        </image>
      </g>
    </g>
    <g>
      <defs>
        <rect id="SVGID_00000021077522204520549880000011180665647183624326_" x="203.6" y="490.8" width="27.2" height="35.1"/>
      </defs>
      <clipPath id="SVGID_00000000218438841380201380000004794344622926737052_">
        <use xlink:href="#SVGID_00000021077522204520549880000011180665647183624326_"  style="overflow:visible;"/>
      </clipPath>
      
        <g transform="matrix(1 0 0 1 0 3.051758e-05)" style="clip-path:url(#SVGID_00000000218438841380201380000004794344622926737052_);">
        
          <image style="overflow:visible;" width="1126" height="1500" xlink:href="/default/argenville.30327.jpg"  transform="matrix(2.902700e-02 0 0 2.902700e-02 200.7776 484.6922)">
        </image>
      </g>
    </g>
    <g>
      <defs>
        
          <rect id="SVGID_00000060740883848301935080000008305427614132416896_" x="138.5" y="317" transform="matrix(-0.6725 0.7401 -0.7401 -0.6725 511.4433 432.5774)" width="43" height="25"/>
      </defs>
      <clipPath id="SVGID_00000134942391926602897380000014612588300618303645_">
        <use xlink:href="#SVGID_00000060740883848301935080000008305427614132416896_"  style="overflow:visible;"/>
      </clipPath>
      
        <g transform="matrix(1 0 0 1 1.525879e-05 0)" style="clip-path:url(#SVGID_00000134942391926602897380000014612588300618303645_);">
        
          <image style="overflow:visible;" width="1500" height="1126" xlink:href="/default/guerin.40008.jpg"  transform="matrix(-2.101499e-02 2.312428e-02 -2.312428e-02 -2.101499e-02 188.7161 323.9269)">
        </image>
      </g>
    </g>
    <rect id="_x34_0001" x="453" y="202.8" class="st6" width="21" height="32"/>
<rect id="_x33_0107" x="251.7" y="178.2" class="st6" width="9.4" height="20.7"/>
<rect id="_x33_0110" x="234.2" y="179.3" class="st6" width="9.3" height="14.8"/>
<rect id="_x33_0112" x="214.5" y="178.2" class="st6" width="10.3" height="15.9"/>
<rect id="_x33_0106" x="193.2" y="179.3" class="st6" width="12.3" height="14.8"/>
<rect id="_x33_0111" x="288.9" y="179.3" class="st6" width="8.4" height="13.8"/>
<rect id="_x34_0002" x="203.1" y="247.5" class="st6" width="21.7" height="24.7"/>
<rect id="_x33_0298" x="312.4" y="304.3" transform="matrix(0.8194 0.5732 -0.5732 0.8194 238.6796 -128.6349)" class="st6" width="22.2" height="20.3"/>
<rect id="_x34_0003" x="348.4" y="304.3" transform="matrix(0.6423 -0.7665 0.7665 0.6423 -122.142 394.056)" class="st6" width="25.5" height="47.1"/>
<rect id="_x33_0507" x="369.1" y="352" transform="matrix(0.866 -0.5 0.5 0.866 -130.4922 238.5579)" class="st6" width="21.5" height="21.5"/>
<rect id="_x34_0004" x="391.3" y="374.4" class="st6" width="15.2" height="10.7"/>
<rect id="_x34_0005" x="394.6" y="431.4" class="st6" width="14.1" height="9.1"/>
<rect id="_x33_0334" x="317.1" y="494.7" transform="matrix(0.9177 -0.3974 0.3974 0.9177 -173.4371 172.4998)" class="st6" width="24.8" height="20.1"/>
<rect id="_x33_0330" x="289.5" y="507.2" class="st6" width="34.3" height="18.8"/>
<rect id="_x33_0329" x="251" y="494.5" class="st6" width="17.4" height="24.8"/>
<rect id="_x34_0006" x="184.9" y="489.7" transform="matrix(0.8294 0.5586 -0.5586 0.8294 312.9908 -23.2165)" class="st6" width="19.3" height="22.4"/>
<rect id="_x33_0518" x="153.4" y="476.3" transform="matrix(0.7071 -0.7071 0.7071 0.7071 -295.1996 256.0348)" class="st6" width="16" height="16"/>
<rect id="_x33_0514" x="136.8" y="443.3" transform="matrix(0.9113 -0.4117 0.4117 0.9113 -173.2785 100.6317)" class="st6" width="20.3" height="18.6"/>
<rect id="_x33_0315" x="122.9" y="428.3" class="st6" width="15.6" height="10.9"/>
<rect id="_x34_0007" x="122.9" y="379.9" class="st6" width="15.6" height="10.2"/>
<rect id="_x33_0516" x="138.2" y="353.7" transform="matrix(0.9184 0.3955 -0.3955 0.9184 155.7246 -28.8173)" class="st6" width="19.2" height="19.2"/>
<rect id="_x33_0308" x="183.1" y="303.9" transform="matrix(0.8445 -0.5356 0.5356 0.8445 -137.7039 152.4107)" class="st6" width="21.1" height="18.9"/>
    </svg>